<svg width="2842" height="554" viewBox="0 0 2842 554" fill="none" xmlns="http://www.w3.org/2000/svg">
<rect width="2248" height="554" rx="16" fill="#FFFF00"/>
<rect x="2288" width="554" height="554" rx="16" fill="#00FFFF"/>
<path d="M77 78.6373C77 77.7328 77.7332 76.9996 78.6377 76.9996L129.416 76.9996C130.321 76.9996 131.054 77.7328 131.054 78.6373L131.054 99.6872C131.054 100.592 130.321 101.325 129.416 101.325L121.881 101.325C120.976 101.325 120.243 100.592 120.243 99.6872L120.243 89.4488C120.243 88.5444 119.51 87.8112 118.605 87.8112L89.4482 87.8112C88.5438 87.8112 87.8105 88.5444 87.8105 89.4488L87.8105 105.092C87.8105 105.997 88.5438 106.73 89.4482 106.73L129.416 106.73C130.32 106.73 131.054 107.463 131.054 108.368L131.054 115.903C131.054 116.807 130.321 117.541 129.416 117.541L78.6377 117.541C77.7332 117.541 77 116.807 77 115.903L77 78.6373Z" fill="black"/>
<path d="M86.1729 128.351C87.0773 128.351 87.8105 129.084 87.8105 129.989L87.8105 156.444C87.8105 157.348 88.5438 158.081 89.4482 158.081L129.416 158.081C130.32 158.081 131.054 158.815 131.054 159.719L131.054 167.254C131.054 168.159 130.321 168.892 129.416 168.892L78.6377 168.892C77.7332 168.892 77 168.159 77 167.254L77 129.989C77 129.084 77.7332 128.351 78.6377 128.351L86.1729 128.351ZM104.027 128.352C104.027 128.352 104.027 128.352 104.027 128.352C104.027 128.351 104.028 128.351 104.028 128.351L114.837 128.351C114.838 128.351 114.838 128.351 114.838 128.351C114.838 128.352 114.838 128.352 114.838 128.352L129.416 128.352C130.321 128.352 131.054 129.085 131.054 129.99L131.054 137.525C131.054 138.429 130.321 139.163 129.416 139.163L116.476 139.163C115.571 139.163 114.838 139.896 114.838 140.8L114.838 151.039C114.838 151.943 114.105 152.676 113.2 152.676L105.665 152.676C104.761 152.676 104.027 151.943 104.027 151.039L104.027 140.8C104.027 139.896 103.294 139.163 102.39 139.163L94.8535 139.163C93.949 139.163 93.2158 138.429 93.2158 137.525L93.2158 129.99C93.2158 129.085 93.949 128.352 94.8535 128.352L104.027 128.352Z" fill="black"/>
<path d="M77 181.34C77 180.436 77.7333 179.702 78.6378 179.702L87.8105 179.703L113.2 179.703C114.105 179.703 114.838 180.437 114.838 181.341L114.838 188.876C114.838 189.781 114.105 190.514 113.2 190.514L89.4482 190.514C88.5438 190.514 87.8105 191.247 87.8105 192.152L87.8105 207.795C87.8105 208.7 88.5438 209.433 89.4482 209.433L129.416 209.433C130.32 209.433 131.054 210.166 131.054 211.07L131.054 218.606C131.054 219.51 130.321 220.243 129.416 220.243L78.6377 220.243C77.7332 220.243 77 219.51 77 218.606L77 181.34ZM129.416 194.568C130.32 194.568 131.054 195.301 131.054 196.205L131.054 203.74C131.054 204.645 130.321 205.378 129.416 205.378L94.8535 205.378C93.949 205.378 93.2158 204.645 93.2158 203.74L93.2158 196.205C93.2158 195.301 93.949 194.568 94.8535 194.568L129.416 194.568ZM129.416 179.703C130.321 179.703 131.054 180.437 131.054 181.341L131.054 188.876C131.054 189.781 130.321 190.514 129.416 190.514L121.881 190.514C120.976 190.514 120.243 189.781 120.243 188.876L120.243 181.341C120.243 180.437 120.976 179.703 121.881 179.703L129.416 179.703Z" fill="black"/>
<path d="M77 232.691C77 231.787 77.7332 231.054 78.6377 231.054L113.2 231.054C114.105 231.054 114.838 231.787 114.838 232.691L114.838 240.228C114.838 241.132 114.105 241.865 113.2 241.865L89.4482 241.865C88.5438 241.865 87.8105 242.599 87.8105 243.503L87.8105 259.147C87.8105 260.051 88.5438 260.784 89.4482 260.784L129.416 260.784C130.32 260.784 131.054 261.517 131.054 262.422L131.054 269.957C131.054 270.862 130.321 271.595 129.416 271.595L78.6377 271.595C77.7332 271.595 77 270.862 77 269.957L77 232.691ZM129.416 245.919C130.32 245.919 131.054 246.652 131.054 247.557L131.054 255.092C131.054 255.996 130.321 256.73 129.416 256.73L94.8535 256.73C93.949 256.73 93.2158 255.996 93.2158 255.092L93.2158 247.557C93.2158 246.652 93.949 245.919 94.8535 245.919L129.416 245.919ZM129.416 231.054C130.321 231.054 131.054 231.787 131.054 232.691L131.054 240.228C131.054 241.132 130.321 241.865 129.416 241.865L121.881 241.865C120.976 241.865 120.243 241.132 120.243 240.228L120.243 232.691C120.243 231.787 120.976 231.054 121.881 231.054L129.416 231.054Z" fill="black"/>
<path d="M86.1729 282.405C87.0773 282.405 87.8105 283.138 87.8105 284.043L87.8105 310.498C87.8105 311.402 88.5438 312.136 89.4482 312.136L129.416 312.136C130.32 312.136 131.054 312.869 131.054 313.773L131.054 321.308C131.054 322.213 130.321 322.946 129.416 322.946L78.6377 322.946C77.7332 322.946 77 322.213 77 321.308L77 284.043C77 283.138 77.7332 282.405 78.6377 282.405L86.1729 282.405ZM104.027 282.406C104.027 282.406 104.027 282.406 104.027 282.406C104.027 282.405 104.028 282.405 104.028 282.405L114.837 282.405C114.838 282.405 114.838 282.405 114.838 282.406C114.838 282.406 114.838 282.406 114.838 282.406L129.416 282.406C130.321 282.406 131.054 283.139 131.054 284.044L131.054 291.579C131.054 292.483 130.321 293.217 129.416 293.217L116.476 293.217C115.571 293.217 114.838 293.95 114.838 294.854L114.838 305.093C114.838 305.997 114.105 306.73 113.2 306.73L105.665 306.73C104.761 306.73 104.027 305.997 104.027 305.093L104.027 294.854C104.027 293.95 103.294 293.217 102.39 293.217L94.8535 293.217C93.949 293.217 93.2158 292.483 93.2158 291.579L93.2158 284.044C93.2158 283.139 93.949 282.406 94.8535 282.406L104.027 282.406Z" fill="black"/>
<path d="M129.416 363.487C130.321 363.487 131.054 364.22 131.054 365.125L131.054 372.66C131.054 373.564 130.321 374.297 129.416 374.297L116.476 374.297C115.571 374.297 114.838 373.564 114.838 372.66L114.838 365.125C114.838 364.22 115.571 363.487 116.476 363.487L129.416 363.487ZM96.9844 363.487C97.8889 363.487 98.6221 362.754 98.6221 361.849L98.6221 335.394C98.6221 334.49 99.3553 333.756 100.26 333.756L129.416 333.756C130.321 333.756 131.054 334.49 131.054 335.394L131.054 342.93C131.054 343.835 130.321 344.568 129.416 344.568L111.07 344.568C110.166 344.568 109.433 345.301 109.433 346.206L109.433 372.66C109.433 373.564 108.699 374.297 107.795 374.297L78.6377 374.297C77.7332 374.297 77 373.564 77 372.66L77 365.125C77 364.22 77.7332 363.487 78.6377 363.487L96.9844 363.487ZM91.5782 333.756C92.4826 333.756 93.2158 334.49 93.2158 335.394L93.2158 342.93C93.2158 343.835 92.4826 344.568 91.5782 344.568L78.6377 344.568C77.7332 344.568 77 343.835 77 342.93L77 335.394C77 334.49 77.7332 333.756 78.6377 333.756L91.5782 333.756Z" fill="black"/>
<path d="M129.416 385.109C130.321 385.109 131.054 385.842 131.054 386.746L131.054 424.011C131.054 424.916 130.321 425.649 129.416 425.649L121.881 425.649C120.976 425.649 120.243 424.916 120.243 424.011L120.243 397.557C120.243 396.653 119.51 395.919 118.605 395.919L78.6377 395.919C77.7332 395.919 77 395.186 77 394.282L77 386.746C77 385.842 77.7332 385.109 78.6377 385.109L129.416 385.109ZM113.876 414.838C114.78 414.838 115.514 415.572 115.514 416.476L115.514 424.011C115.514 424.916 114.78 425.649 113.876 425.649L78.6377 425.649C77.7332 425.649 77 424.916 77 424.011L77 416.476C77 415.572 77.7332 414.838 78.6377 414.838L113.876 414.838Z" fill="black"/>
<path d="M77 438.097C77 437.192 77.7332 436.459 78.6377 436.459L113.2 436.459C114.105 436.459 114.838 437.192 114.838 438.097L114.838 445.633C114.838 446.538 114.105 447.271 113.2 447.271L89.4482 447.271C88.5438 447.271 87.8105 448.004 87.8105 448.908L87.8105 464.552C87.8105 465.456 88.5438 466.19 89.4482 466.19L129.416 466.19C130.32 466.19 131.054 466.923 131.054 467.827L131.054 475.363C131.054 476.267 130.321 477 129.416 477L78.6377 477C77.7332 477 77 476.267 77 475.363L77 438.097ZM129.416 451.324C130.32 451.324 131.054 452.058 131.054 452.962L131.054 460.497C131.054 461.402 130.321 462.135 129.416 462.135L94.8535 462.135C93.949 462.135 93.2158 461.402 93.2158 460.497L93.2158 452.962C93.2158 452.058 93.949 451.324 94.8535 451.324L129.416 451.324ZM129.416 436.459C130.321 436.459 131.054 437.192 131.054 438.097L131.054 445.633C131.054 446.538 130.321 447.271 129.416 447.271L121.881 447.271C120.976 447.271 120.243 446.538 120.243 445.633L120.243 438.097C120.243 437.192 120.976 436.459 121.881 436.459L129.416 436.459Z" fill="black"/>
<path d="M2171 464.2C2171 468.68 2171 470.921 2170.13 472.632C2169.36 474.137 2168.14 475.361 2166.63 476.128C2164.92 477 2162.68 477 2158.2 477H1883.8C1879.32 477 1877.08 477 1875.37 476.128C1873.86 475.361 1872.64 474.137 1871.87 472.632C1871 470.921 1871 468.68 1871 464.2V409.8C1871 405.32 1871 403.079 1871.87 401.368C1872.64 399.863 1873.86 398.639 1875.37 397.872C1877.08 397 1879.32 397 1883.8 397H2158.2C2162.68 397 2164.92 397 2166.63 397.872C2168.14 398.639 2169.36 399.863 2170.13 401.368C2171 403.079 2171 405.32 2171 409.8V464.2ZM2121.13 336.091C2126.6 342.771 2129.33 346.111 2129.36 348.928C2129.38 351.377 2128.28 353.701 2126.37 355.235C2124.18 357 2119.86 357 2111.23 357H2040.81C2038.59 357 2037.47 357 2036.44 356.72C2035.53 356.472 2034.67 356.063 2033.9 355.514C2033.03 354.894 2032.32 354.032 2030.91 352.309L1873.9 160.537C1872.82 159.227 1872.29 158.571 1871.9 157.839C1871.57 157.189 1871.32 156.495 1871.17 155.778C1871 154.969 1871 154.122 1871 152.428V89.8C1871 85.3196 1871 83.0794 1871.87 81.3681C1872.64 79.8628 1873.86 78.6389 1875.37 77.8719C1877.08 77 1879.32 77 1883.8 77H2158.2C2162.68 77 2164.92 77 2166.63 77.8719C2168.14 78.6389 2169.36 79.8628 2170.13 81.3681C2171 83.0794 2171 85.3196 2171 89.8V144.2C2171 148.68 2171 150.921 2170.13 152.632C2169.36 154.137 2168.14 155.361 2166.63 156.128C2164.92 157 2162.68 157 2158.2 157H2001.52C1992.89 157 1988.57 157 1986.38 158.765C1984.47 160.299 1983.37 162.623 1983.39 165.072C1983.42 167.889 1986.15 171.229 1991.62 177.909L2121.13 336.091Z" fill="black"/>
<path d="M1601.05 464.227C1601.05 468.708 1601.05 470.948 1600.18 472.659C1599.41 474.165 1598.19 475.388 1596.69 476.155C1594.97 477.027 1592.73 477.027 1588.25 477.027H1543.85C1539.37 477.027 1537.13 477.027 1535.42 476.155C1533.92 475.388 1532.69 474.165 1531.93 472.659C1531.05 470.948 1531.05 468.708 1531.05 464.227V409.827C1531.05 405.347 1531.05 403.107 1531.93 401.395C1532.69 399.89 1533.92 398.666 1535.42 397.899C1537.13 397.027 1539.37 397.027 1543.85 397.027H1588.25C1592.73 397.027 1594.97 397.027 1596.69 397.899C1598.19 398.666 1599.41 399.89 1600.18 401.395C1601.05 403.107 1601.05 405.347 1601.05 409.827V464.227ZM1708.25 77.0273C1712.73 77.0273 1714.97 77.0273 1716.69 77.8993C1718.19 78.6663 1719.41 79.8901 1720.18 81.3954C1721.05 83.1067 1721.05 85.3469 1721.05 89.8273V384.227C1721.05 388.708 1721.05 390.948 1721.93 392.659C1722.69 394.165 1723.92 395.388 1725.42 396.155C1727.13 397.027 1729.37 397.027 1733.85 397.027H1818.25C1822.73 397.027 1824.97 397.027 1826.69 397.899C1828.19 398.666 1829.41 399.89 1830.18 401.395C1831.05 403.107 1831.05 405.347 1831.05 409.827V464.227C1831.05 468.708 1831.05 470.948 1830.18 472.659C1829.41 474.165 1828.19 475.388 1826.69 476.155C1824.97 477.027 1822.73 477.027 1818.25 477.027H1653.85C1649.37 477.027 1647.13 477.027 1645.42 476.155C1643.92 475.388 1642.69 474.165 1641.93 472.659C1641.05 470.948 1641.05 468.708 1641.05 464.227V169.827C1641.05 165.347 1641.05 163.107 1640.18 161.395C1639.41 159.89 1638.19 158.666 1636.69 157.899C1634.97 157.027 1632.73 157.027 1628.25 157.027H1543.85C1539.37 157.027 1537.13 157.027 1535.42 156.155C1533.92 155.388 1532.69 154.165 1531.93 152.659C1531.05 150.948 1531.05 148.708 1531.05 144.227V89.8273C1531.05 85.3469 1531.05 83.1067 1531.93 81.3954C1532.69 79.8901 1533.92 78.6663 1535.42 77.8993C1537.13 77.0273 1539.37 77.0273 1543.85 77.0273H1708.25ZM1831.05 144.227C1831.05 148.708 1831.05 150.948 1830.18 152.659C1829.41 154.165 1828.19 155.388 1826.69 156.155C1824.97 157.027 1822.73 157.027 1818.25 157.027H1773.85C1769.37 157.027 1767.13 157.027 1765.42 156.155C1763.92 155.388 1762.69 154.165 1761.93 152.659C1761.05 150.948 1761.05 148.708 1761.05 144.227V89.8273C1761.05 85.3469 1761.05 83.1067 1761.93 81.3954C1762.69 79.8901 1763.92 78.6663 1765.42 77.8993C1767.13 77.0273 1769.37 77.0273 1773.85 77.0273H1818.25C1822.73 77.0273 1824.97 77.0273 1826.69 77.8993C1828.19 78.6663 1829.41 79.8901 1830.18 81.3954C1831.05 83.1067 1831.05 85.3469 1831.05 89.8273V144.227Z" fill="black"/>
<path d="M1491.05 144.227C1491.05 148.708 1491.05 150.948 1490.18 152.659C1489.41 154.165 1488.19 155.388 1486.69 156.155C1484.97 157.027 1482.73 157.027 1478.25 157.027H1283.85C1279.37 157.027 1277.13 157.027 1275.42 157.899C1273.92 158.666 1272.69 159.89 1271.93 161.395C1271.05 163.107 1271.05 165.347 1271.05 169.827V464.227C1271.05 468.708 1271.05 470.948 1270.18 472.659C1269.41 474.165 1268.19 475.388 1266.69 476.155C1264.97 477.027 1262.73 477.027 1258.25 477.027H1203.85C1199.37 477.027 1197.13 477.027 1195.42 476.155C1193.92 475.388 1192.69 474.165 1191.93 472.659C1191.05 470.948 1191.05 468.708 1191.05 464.227V89.8273C1191.05 85.3469 1191.05 83.1067 1191.93 81.3954C1192.69 79.8901 1193.92 78.6663 1195.42 77.8993C1197.13 77.0273 1199.37 77.0273 1203.85 77.0273H1478.25C1482.73 77.0273 1484.97 77.0273 1486.69 77.8993C1488.19 78.6663 1489.41 79.8901 1490.18 81.3954C1491.05 83.1067 1491.05 85.3469 1491.05 89.8273V144.227ZM1491.05 464.227C1491.05 468.708 1491.05 470.948 1490.18 472.659C1489.41 474.165 1488.19 475.388 1486.69 476.155C1484.97 477.027 1482.73 477.027 1478.25 477.027H1423.85C1419.37 477.027 1417.13 477.027 1415.42 476.155C1413.92 475.388 1412.69 474.165 1411.93 472.659C1411.05 470.948 1411.05 468.708 1411.05 464.227V369.827C1411.05 365.347 1411.05 363.107 1410.18 361.395C1409.41 359.89 1408.19 358.666 1406.69 357.899C1404.97 357.027 1402.73 357.027 1398.25 357.027H1323.85C1319.37 357.027 1317.13 357.027 1315.42 356.155C1313.92 355.388 1312.69 354.165 1311.93 352.659C1311.05 350.948 1311.05 348.708 1311.05 344.227V289.827C1311.05 285.347 1311.05 283.107 1311.93 281.395C1312.69 279.89 1313.92 278.666 1315.42 277.899C1317.13 277.027 1319.37 277.027 1323.85 277.027H1398.25C1402.73 277.027 1404.97 277.027 1406.69 276.155C1408.19 275.388 1409.41 274.165 1410.18 272.659C1411.05 270.948 1411.05 268.708 1411.05 264.227V209.827C1411.05 205.347 1411.05 203.107 1411.93 201.395C1412.69 199.89 1413.92 198.666 1415.42 197.899C1417.13 197.027 1419.37 197.027 1423.85 197.027H1478.25C1482.73 197.027 1484.97 197.027 1486.69 197.899C1488.19 198.666 1489.41 199.89 1490.18 201.395C1491.05 203.107 1491.05 205.347 1491.05 209.827V464.227Z" fill="black"/>
<path d="M931.054 396.527C931.054 396.803 931.278 397.027 931.554 397.027C931.83 397.027 932.054 397.251 932.054 397.527V464.227C932.054 468.708 932.054 470.948 931.182 472.659C930.415 474.165 929.191 475.388 927.686 476.155C925.974 477.027 923.734 477.027 919.254 477.027H863.854C859.373 477.027 857.133 477.027 855.422 476.155C853.916 475.388 852.693 474.165 851.926 472.659C851.054 470.948 851.054 468.708 851.054 464.227V89.8273C851.054 85.3469 851.054 83.1067 851.926 81.3954C852.693 79.8901 853.916 78.6663 855.422 77.8993C857.133 77.0273 859.373 77.0273 863.854 77.0273H918.254C922.734 77.0273 924.974 77.0273 926.686 77.8993C928.191 78.6663 929.415 79.8901 930.182 81.3954C931.054 83.1067 931.054 85.3469 931.054 89.8273V396.527ZM1151.05 464.227C1151.05 468.708 1151.05 470.948 1150.18 472.659C1149.41 474.165 1148.19 475.388 1146.69 476.155C1144.97 477.027 1142.73 477.027 1138.25 477.027H984.854C980.373 477.027 978.133 477.027 976.422 476.155C974.916 475.388 973.693 474.165 972.926 472.659C972.054 470.948 972.054 468.708 972.054 464.227V409.827C972.054 405.347 972.054 403.107 972.926 401.395C973.693 399.89 974.916 398.666 976.422 397.899C978.133 397.027 980.373 397.027 984.854 397.027H1138.25C1142.73 397.027 1144.97 397.027 1146.69 397.899C1148.19 398.666 1149.41 399.89 1150.18 401.395C1151.05 403.107 1151.05 405.347 1151.05 409.827V464.227Z" fill="black"/>
<path d="M811.054 464.227C811.054 468.708 811.054 470.948 810.182 472.659C809.415 474.165 808.191 475.388 806.686 476.155C804.974 477.027 802.734 477.027 798.254 477.027H523.854C519.373 477.027 517.133 477.027 515.422 476.155C513.916 475.388 512.693 474.165 511.926 472.659C511.054 470.948 511.054 468.708 511.054 464.227V409.827C511.054 405.347 511.054 403.107 511.926 401.395C512.693 399.89 513.916 398.666 515.422 397.899C517.133 397.027 519.373 397.027 523.854 397.027H718.254C722.734 397.027 724.974 397.027 726.686 396.155C728.191 395.388 729.415 394.165 730.182 392.659C731.054 390.948 731.054 388.708 731.054 384.227V89.8273C731.054 85.3469 731.054 83.1067 731.926 81.3954C732.693 79.8901 733.916 78.6663 735.422 77.8993C737.133 77.0273 739.373 77.0273 743.854 77.0273H798.254C802.734 77.0273 804.974 77.0273 806.686 77.8993C808.191 78.6663 809.415 79.8901 810.182 81.3954C811.054 83.1067 811.054 85.3469 811.054 89.8273V464.227ZM591.054 349.227C591.054 353.708 591.054 355.948 590.182 357.659C589.415 359.165 588.191 360.388 586.686 361.155C584.974 362.027 582.734 362.027 578.254 362.027H523.854C519.373 362.027 517.133 362.027 515.422 361.155C513.916 360.388 512.693 359.165 511.926 357.659C511.054 355.948 511.054 353.708 511.054 349.227V89.8273C511.054 85.3469 511.054 83.1067 511.926 81.3954C512.693 79.8901 513.916 78.6663 515.422 77.8993C517.133 77.0273 519.373 77.0273 523.854 77.0273H578.254C582.734 77.0273 584.974 77.0273 586.686 77.8993C588.191 78.6663 589.415 79.8901 590.182 81.3954C591.054 83.1067 591.054 85.3469 591.054 89.8273V349.227Z" fill="black"/>
<path d="M471.054 464.227C471.054 468.708 471.054 470.948 470.182 472.659C469.415 474.165 468.191 475.388 466.686 476.155C464.974 477.027 462.734 477.027 458.254 477.027H183.854C179.373 477.027 177.133 477.027 175.422 476.155C173.916 475.388 172.693 474.165 171.926 472.659C171.054 470.948 171.054 468.708 171.054 464.227V409.827C171.054 405.347 171.054 403.107 171.926 401.395C172.693 399.89 173.916 398.666 175.422 397.899C177.133 397.027 179.373 397.027 183.854 397.027H340.531C349.164 397.027 353.481 397.027 355.676 395.263C357.585 393.728 358.686 391.404 358.664 388.955C358.639 386.139 355.904 382.799 350.435 376.119L220.923 217.936C215.453 211.256 212.719 207.916 212.693 205.099C212.671 202.65 213.772 200.326 215.681 198.792C217.876 197.027 222.193 197.027 230.827 197.027H301.241C303.468 197.027 304.582 197.027 305.613 197.307C306.526 197.556 307.388 197.964 308.158 198.513C309.028 199.133 309.733 199.995 311.145 201.719L468.158 393.49C469.231 394.801 469.767 395.456 470.149 396.189C470.487 396.839 470.735 397.532 470.885 398.25C471.054 399.058 471.054 399.905 471.054 401.599V464.227ZM471.054 144.227C471.054 148.708 471.054 150.948 470.182 152.659C469.415 154.165 468.191 155.388 466.686 156.155C464.974 157.027 462.734 157.027 458.254 157.027H183.854C179.373 157.027 177.133 157.027 175.422 156.155C173.916 155.388 172.693 154.165 171.926 152.659C171.054 150.948 171.054 148.708 171.054 144.227V89.8273C171.054 85.3469 171.054 83.1067 171.926 81.3954C172.693 79.8901 173.916 78.6663 175.422 77.8993C177.133 77.0273 179.373 77.0273 183.854 77.0273H458.254C462.734 77.0273 464.974 77.0273 466.686 77.8993C468.191 78.6663 469.415 79.8901 470.182 81.3954C471.054 83.1067 471.054 85.3469 471.054 89.8273V144.227Z" fill="black"/>
<rect x="32" y="490" width="8" height="32" rx="4" fill="black"/>
<rect x="64" y="514" width="8" height="32" rx="4" transform="rotate(90 64 514)" fill="black"/>
<rect width="8" height="32" rx="4" transform="matrix(-1 0 0 1 2216 490)" fill="black"/>
<rect width="8" height="32" rx="4" transform="matrix(4.37114e-08 1 1 -4.37114e-08 2184 514)" fill="black"/>
<rect width="8" height="32" rx="4" transform="matrix(-1 0 0 1 2810 490)" fill="black"/>
<rect width="8" height="32" rx="4" transform="matrix(4.37114e-08 1 1 -4.37114e-08 2778 514)" fill="black"/>
<rect x="2320" y="490" width="8" height="32" rx="4" fill="black"/>
<rect x="2352" y="514" width="8" height="32" rx="4" transform="rotate(90 2352 514)" fill="black"/>
<rect x="64" y="32" width="8" height="32" rx="4" transform="rotate(90 64 32)" fill="black"/>
<rect x="40" y="64" width="8" height="32" rx="4" transform="rotate(-180 40 64)" fill="black"/>
<rect width="8" height="32" rx="4" transform="matrix(0 1 1 0 2184 32)" fill="black"/>
<rect width="8" height="32" rx="4" transform="matrix(1 -4.37114e-08 -4.37114e-08 -1 2208 64)" fill="black"/>
<rect width="8" height="32" rx="4" transform="matrix(0 1 1 0 2778 32)" fill="black"/>
<rect width="8" height="32" rx="4" transform="matrix(1 -4.37114e-08 -4.37114e-08 -1 2802 64)" fill="black"/>
<rect x="2352" y="32" width="8" height="32" rx="4" transform="rotate(90 2352 32)" fill="black"/>
<rect x="2328" y="64" width="8" height="32" rx="4" transform="rotate(-180 2328 64)" fill="black"/>
<path d="M2389 381C2384.58 381 2381 384.582 2381 389V453C2381 457.418 2384.58 461 2389 461H2453C2457.42 461 2461 457.418 2461 453V389C2461 384.582 2457.42 381 2453 381H2389ZM2493 405C2493 400.582 2496.58 397 2501 397H2509V405C2509 409.418 2512.58 413 2517 413C2521.42 413 2525 416.582 2525 421V453C2525 457.418 2521.42 461 2517 461C2512.58 461 2509 464.582 2509 469C2509 473.418 2505.42 477 2501 477C2496.58 477 2493 473.418 2493 469V405ZM2541 469C2541 464.582 2544.58 461 2549 461C2553.42 461 2557 457.418 2557 453C2557 448.582 2560.58 445 2565 445H2573V453C2573 457.418 2576.58 461 2581 461H2605V469C2605 473.418 2601.42 477 2597 477H2549C2544.58 477 2541 473.418 2541 469ZM2741 429C2736.58 429 2733 432.582 2733 437C2733 441.418 2729.42 445 2725 445C2720.58 445 2717 448.582 2717 453C2717 457.418 2720.58 461 2725 461H2741C2745.42 461 2749 457.418 2749 453V437C2749 432.582 2745.42 429 2741 429ZM2605 453C2605 448.582 2601.42 445 2597 445H2573V421C2573 416.582 2569.42 413 2565 413C2560.58 413 2557 416.582 2557 421C2557 425.418 2553.42 429 2549 429C2544.58 429 2541 425.418 2541 421V405C2541 400.582 2537.42 397 2533 397H2509V389C2509 384.582 2505.42 381 2501 381C2496.58 381 2493 377.418 2493 373V357C2493 352.582 2489.42 349 2485 349H2453C2448.58 349 2445 345.418 2445 341V333H2469C2473.42 333 2477 329.418 2477 325V317H2485C2489.42 317 2493 313.418 2493 309C2493 304.582 2496.58 301 2501 301H2509V357C2509 361.418 2512.58 365 2517 365C2521.42 365 2525 368.582 2525 373C2525 377.418 2528.58 381 2533 381H2549C2553.42 381 2557 384.582 2557 389C2557 393.418 2560.58 397 2565 397H2581C2585.42 397 2589 400.582 2589 405V421C2589 425.418 2592.58 429 2597 429H2613C2617.42 429 2621 432.582 2621 437C2621 441.418 2624.58 445 2629 445H2645C2649.42 445 2653 448.582 2653 453V461H2605V453ZM2397 405C2397 400.582 2400.58 397 2405 397H2437C2441.42 397 2445 400.582 2445 405V437C2445 441.418 2441.42 445 2437 445H2405C2400.58 445 2397 441.418 2397 437V405ZM2581 365C2585.42 365 2589 368.582 2589 373C2589 377.418 2585.42 381 2581 381C2576.58 381 2573 377.418 2573 373V365H2581ZM2661 365C2665.42 365 2669 368.582 2669 373C2669 377.418 2665.42 381 2661 381C2656.58 381 2653 377.418 2653 373C2653 368.582 2656.58 365 2661 365ZM2757 365C2761.42 365 2765 368.582 2765 373C2765 377.418 2761.42 381 2757 381H2717V365H2757ZM2365 293C2365 288.582 2368.58 285 2373 285C2377.42 285 2381 288.582 2381 293V341C2381 345.418 2377.42 349 2373 349C2368.58 349 2365 345.418 2365 341V293ZM2413 333V341C2413 345.418 2409.42 349 2405 349C2400.58 349 2397 345.418 2397 341C2397 336.582 2400.58 333 2405 333H2413ZM2725 333C2729.42 333 2733 336.582 2733 341C2733 345.418 2729.42 349 2725 349H2717V341C2717 336.582 2720.58 333 2725 333ZM2413 309C2413 304.582 2416.58 301 2421 301H2429V309C2429 313.418 2432.58 317 2437 317C2441.42 317 2445 320.582 2445 325V333H2413V309ZM2749 325C2749 320.582 2745.42 317 2741 317C2736.58 317 2733 313.418 2733 309V293C2733 288.582 2729.42 285 2725 285H2717V277C2717 272.582 2720.58 269 2725 269H2741C2745.42 269 2749 265.418 2749 261C2749 256.582 2745.42 253 2741 253C2736.58 253 2733 249.418 2733 245V213C2733 208.582 2736.58 205 2741 205C2745.42 205 2749 208.582 2749 213V229C2749 233.418 2752.58 237 2757 237C2761.42 237 2765 240.582 2765 245V277C2765 281.418 2761.42 285 2757 285C2752.58 285 2749 288.582 2749 293C2749 297.418 2752.58 301 2757 301C2761.42 301 2765 304.582 2765 309V325C2765 329.418 2761.42 333 2757 333C2752.58 333 2749 329.418 2749 325ZM2469 301C2473.42 301 2477 304.582 2477 309V317H2469C2464.58 317 2461 313.418 2461 309V301H2469ZM2429 269H2437C2441.42 269 2445 272.582 2445 277C2445 281.418 2448.58 285 2453 285H2461V301H2429V269ZM2413 269V277C2413 281.418 2409.42 285 2405 285C2400.58 285 2397 281.418 2397 277C2397 272.582 2400.58 269 2405 269H2413ZM2469 269C2473.42 269 2477 272.582 2477 277C2477 281.418 2473.42 285 2469 285H2461V277C2461 272.582 2464.58 269 2469 269ZM2685 277C2685 272.582 2681.42 269 2677 269H2669V261C2669 256.582 2665.42 253 2661 253H2653V237H2661C2665.42 237 2669 233.418 2669 229V213C2669 208.582 2672.58 205 2677 205C2681.42 205 2685 208.582 2685 213V245C2685 249.418 2688.58 253 2693 253H2701V285H2685V277ZM2421 253C2425.42 253 2429 256.582 2429 261V269H2413V261C2413 256.582 2416.58 253 2421 253ZM2397 237V245C2397 249.418 2393.42 253 2389 253H2373C2368.58 253 2365 249.418 2365 245C2365 240.582 2368.58 237 2373 237H2397ZM2469 237C2473.42 237 2477 240.582 2477 245C2477 249.418 2473.42 253 2469 253H2453C2448.58 253 2445 249.418 2445 245C2445 240.582 2448.58 237 2453 237H2469ZM2637 237V253H2613C2608.58 253 2605 249.418 2605 245C2605 240.582 2608.58 237 2613 237H2637ZM2709 237C2713.42 237 2717 240.582 2717 245C2717 249.418 2713.42 253 2709 253H2701V245C2701 240.582 2704.58 237 2709 237ZM2397 229C2397 224.582 2393.42 221 2389 221H2373C2368.58 221 2365 217.418 2365 213C2365 208.582 2368.58 205 2373 205H2437C2441.42 205 2445 208.582 2445 213C2445 217.418 2441.42 221 2437 221H2421C2416.58 221 2413 224.582 2413 229C2413 233.418 2409.42 237 2405 237H2397V229ZM2573 229C2573 224.582 2569.42 221 2565 221C2560.58 221 2557 217.418 2557 213V181C2557 176.582 2560.58 173 2565 173C2569.42 173 2573 176.582 2573 181V197C2573 201.418 2576.58 205 2581 205H2597C2601.42 205 2605 208.582 2605 213C2605 217.418 2601.42 221 2597 221C2592.58 221 2589 224.582 2589 229C2589 233.418 2585.42 237 2581 237H2573V229ZM2637 205H2645C2649.42 205 2653 208.582 2653 213V237H2637V205ZM2709 205C2713.42 205 2717 208.582 2717 213C2717 217.418 2713.42 221 2709 221C2704.58 221 2701 217.418 2701 213C2701 208.582 2704.58 205 2709 205ZM2621 173H2629C2633.42 173 2637 176.582 2637 181V205H2629C2624.58 205 2621 201.418 2621 197V173ZM2389 93C2384.58 93 2381 96.5817 2381 101V165C2381 169.418 2384.58 173 2389 173H2453C2457.42 173 2461 169.418 2461 165V101C2461 96.5817 2457.42 93 2453 93H2389ZM2493 165C2493 160.582 2496.58 157 2501 157C2505.42 157 2509 160.582 2509 165V181C2509 185.418 2505.42 189 2501 189C2496.58 189 2493 185.418 2493 181V165ZM2525 141H2541V181C2541 185.418 2537.42 189 2533 189C2528.58 189 2525 185.418 2525 181V141ZM2589 149C2589 144.582 2585.42 141 2581 141H2573V133C2573 128.582 2576.58 125 2581 125C2585.42 125 2589 121.418 2589 117C2589 112.582 2592.58 109 2597 109H2605V117C2605 121.418 2608.58 125 2613 125H2621V141H2613C2608.58 141 2605 144.582 2605 149C2605 153.418 2608.58 157 2613 157H2621V173H2613C2608.58 173 2605 176.582 2605 181C2605 185.418 2601.42 189 2597 189C2592.58 189 2589 185.418 2589 181V149ZM2677 93C2672.58 93 2669 96.5817 2669 101V165C2669 169.418 2672.58 173 2677 173H2741C2745.42 173 2749 169.418 2749 165V101C2749 96.5817 2745.42 93 2741 93H2677ZM2397 117C2397 112.582 2400.58 109 2405 109H2437C2441.42 109 2445 112.582 2445 117V149C2445 153.418 2441.42 157 2437 157H2405C2400.58 157 2397 153.418 2397 149V117ZM2573 141V149C2573 153.418 2569.42 157 2565 157C2560.58 157 2557 153.418 2557 149V141H2573ZM2629 141C2633.42 141 2637 144.582 2637 149C2637 153.418 2633.42 157 2629 157H2621V141H2629ZM2685 117C2685 112.582 2688.58 109 2693 109H2725C2729.42 109 2733 112.582 2733 117V149C2733 153.418 2729.42 157 2725 157H2693C2688.58 157 2685 153.418 2685 149V117ZM2541 133C2541 128.582 2537.42 125 2533 125C2528.58 125 2525 128.582 2525 133V141H2501C2496.58 141 2493 137.418 2493 133C2493 128.582 2496.58 125 2501 125C2505.42 125 2509 121.418 2509 117C2509 112.582 2505.42 109 2501 109C2496.58 109 2493 105.418 2493 101C2493 96.5817 2496.58 93 2501 93C2505.42 93 2509 89.4183 2509 85C2509 80.5817 2512.58 77 2517 77C2521.42 77 2525 80.5817 2525 85V101C2525 105.418 2528.58 109 2533 109C2537.42 109 2541 105.418 2541 101C2541 96.5817 2544.58 93 2549 93H2573V101C2573 105.418 2569.42 109 2565 109C2560.58 109 2557 112.582 2557 117V141H2541V133ZM2621 117C2621 112.582 2617.42 109 2613 109H2605V101C2605 96.5817 2608.58 93 2613 93C2617.42 93 2621 89.4183 2621 85C2621 80.5817 2624.58 77 2629 77C2633.42 77 2637 80.5817 2637 85V117C2637 121.418 2633.42 125 2629 125H2621V117ZM2581 77C2585.42 77 2589 80.5817 2589 85C2589 89.4183 2585.42 93 2581 93H2573V85C2573 80.5817 2576.58 77 2581 77ZM2645 349C2640.58 349 2637 352.582 2637 357V389C2637 393.418 2640.58 397 2645 397H2677C2681.42 397 2685 393.418 2685 389V357C2685 352.582 2681.42 349 2677 349H2645ZM2477 469C2477 473.418 2473.42 477 2469 477H2373C2368.58 477 2365 473.418 2365 469V373C2365 368.582 2368.58 365 2373 365H2469C2473.42 365 2477 368.582 2477 373V469ZM2613 285C2608.58 285 2605 288.582 2605 293C2605 297.418 2608.58 301 2613 301C2617.42 301 2621 297.418 2621 293C2621 288.582 2617.42 285 2613 285ZM2653 293C2653 297.418 2656.58 301 2661 301C2665.42 301 2669 297.418 2669 293V285H2685V293C2685 297.418 2688.58 301 2693 301C2697.42 301 2701 297.418 2701 293V285H2717V309C2717 313.418 2713.42 317 2709 317C2704.58 317 2701 320.582 2701 325V341C2701 345.418 2704.58 349 2709 349H2717V365H2709C2704.58 365 2701 368.582 2701 373C2701 377.418 2704.58 381 2709 381H2717V397H2709C2704.58 397 2701 400.582 2701 405C2701 409.418 2704.58 413 2709 413C2713.42 413 2717 409.418 2717 405V397H2725C2729.42 397 2733 400.582 2733 405C2733 409.418 2736.58 413 2741 413H2757C2761.42 413 2765 416.582 2765 421V469C2765 473.418 2761.42 477 2757 477H2661C2656.58 477 2653 473.418 2653 469V461H2661C2665.42 461 2669 457.418 2669 453C2669 448.582 2672.58 445 2677 445H2693C2697.42 445 2701 441.418 2701 437C2701 432.582 2697.42 429 2693 429C2688.58 429 2685 425.418 2685 421C2685 416.582 2681.42 413 2677 413C2672.58 413 2669 416.582 2669 421C2669 425.418 2665.42 429 2661 429H2645C2640.58 429 2637 425.418 2637 421C2637 416.582 2633.42 413 2629 413H2613C2608.58 413 2605 409.418 2605 405C2605 400.582 2608.58 397 2613 397C2617.42 397 2621 393.418 2621 389V373C2621 368.582 2617.42 365 2613 365C2608.58 365 2605 361.418 2605 357V349H2613C2617.42 349 2621 345.418 2621 341V333H2629C2633.42 333 2637 329.418 2637 325C2637 320.582 2633.42 317 2629 317C2624.58 317 2621 320.582 2621 325V333H2613C2608.58 333 2605 336.582 2605 341V349H2581C2576.58 349 2573 352.582 2573 357V365H2549C2544.58 365 2541 361.418 2541 357C2541 352.582 2537.42 349 2533 349C2528.58 349 2525 345.418 2525 341C2525 336.582 2528.58 333 2533 333C2537.42 333 2541 329.418 2541 325V317H2549C2553.42 317 2557 320.582 2557 325C2557 329.418 2560.58 333 2565 333H2581C2585.42 333 2589 329.418 2589 325V293C2589 288.582 2585.42 285 2581 285C2576.58 285 2573 288.582 2573 293C2573 297.418 2569.42 301 2565 301C2560.58 301 2557 297.418 2557 293C2557 288.582 2553.42 285 2549 285H2541V277C2541 272.582 2537.42 269 2533 269C2528.58 269 2525 272.582 2525 277C2525 281.418 2528.58 285 2533 285H2541V317H2533C2528.58 317 2525 313.418 2525 309C2525 304.582 2521.42 301 2517 301H2509V261C2509 256.582 2505.42 253 2501 253C2496.58 253 2493 249.418 2493 245V229C2493 224.582 2489.42 221 2485 221H2469C2464.58 221 2461 217.418 2461 213C2461 208.582 2464.58 205 2469 205H2533C2537.42 205 2541 208.582 2541 213C2541 217.418 2537.42 221 2533 221C2528.58 221 2525 224.582 2525 229V245C2525 249.418 2528.58 253 2533 253C2537.42 253 2541 249.418 2541 245C2541 240.582 2544.58 237 2549 237H2573V245C2573 249.418 2569.42 253 2565 253C2560.58 253 2557 256.582 2557 261C2557 265.418 2560.58 269 2565 269H2629C2633.42 269 2637 265.418 2637 261V253H2653V261C2653 265.418 2656.58 269 2661 269H2669V285H2661C2656.58 285 2653 288.582 2653 293ZM2477 181C2477 185.418 2473.42 189 2469 189H2373C2368.58 189 2365 185.418 2365 181V85C2365 80.5817 2368.58 77 2373 77H2469C2473.42 77 2477 80.5817 2477 85V181ZM2765 181C2765 185.418 2761.42 189 2757 189H2661C2656.58 189 2653 185.418 2653 181V85C2653 80.5817 2656.58 77 2661 77H2757C2761.42 77 2765 80.5817 2765 85V181Z" fill="black"/>
</svg>
